<?xml version="1.0" standalone="no"?>
<!DOCTYPE svg PUBLIC "-//W3C//DTD SVG 20010904//EN"
 "http://www.w3.org/TR/2001/REC-SVG-20010904/DTD/svg10.dtd">
<svg version="1.0" xmlns="http://www.w3.org/2000/svg"
 width="600.000000pt" height="600.000000pt" viewBox="0 0 600.000000 600.000000"
 preserveAspectRatio="xMidYMid meet">

<g transform="translate(0.000000,600.000000) scale(0.100000,-0.100000)"
fill="#000000" stroke="none">
<path d="M2690 4105 l0 -1445 -56 -36 c-30 -19 -85 -47 -122 -62 -60 -24 -79
-26 -187 -26 -140 1 -241 27 -377 95 -44 22 -84 37 -87 32 -4 -4 -48 -96 -99
-203 -50 -107 -118 -253 -151 -323 l-60 -128 67 -43 c143 -92 308 -158 472
-187 115 -21 344 -16 465 9 121 26 269 74 350 114 287 143 512 403 624 722 63
178 61 127 61 1592 l0 1334 -450 0 -450 0 0 -1445z"/>
<path d="M3070 1376 c-60 -36 -265 -152 -347 -198 l-53 -30 0 -266 0 -267 153
-84 c83 -47 188 -106 233 -133 l81 -48 139 78 c76 43 183 103 236 133 l98 54
0 266 0 267 -182 102 c-101 57 -206 116 -234 131 -28 16 -55 29 -60 28 -5 0
-34 -15 -64 -33z"/>
</g>
</svg>
